<?xml version="1.0" standalone="no"?>
<!DOCTYPE svg PUBLIC "-//W3C//DTD SVG 20010904//EN"
 "http://www.w3.org/TR/2001/REC-SVG-20010904/DTD/svg10.dtd">
<svg version="1.0" xmlns="http://www.w3.org/2000/svg"
 width="100.000000pt" height="100.000000pt" viewBox="0 0 100.000000 100.000000"
 preserveAspectRatio="xMidYMid meet">
<metadata>
Created by potrace 1.14, written by Peter Selinger 2001-2017
</metadata>
<g transform="translate(0.000000,100.000000) scale(0.100000,-0.100000)"
fill="#000000" stroke="none">
<path d="M471 938 c-10 -24 -40 -98 -66 -165 -46 -120 -48 -123 -79 -124 -32
-1 -112 -5 -232 -12 -71 -4 -94 -10 -94 -27 0 -6 210 -183 268 -226 3 -2 -74
-301 -85 -330 -3 -7 2 -17 11 -20 10 -4 65 25 151 80 75 48 141 89 149 92 7 3
40 -12 72 -34 212 -139 227 -148 242 -138 11 7 9 16 -42 210 -20 76 -36 139
-34 141 2 1 63 50 136 109 126 102 153 135 115 137 -10 0 -47 2 -83 5 -120 8
-195 12 -226 13 -31 1 -33 4 -79 124 -68 175 -83 207 -95 207 -6 0 -19 -19
-29 -42z m57 -108 c13 -33 21 -68 17 -79 -4 -13 0 -23 12 -30 10 -5 27 -32 37
-60 15 -43 22 -51 45 -52 14 -1 44 -3 66 -4 22 -1 76 -3 120 -5 93 -4 103 -7
78 -25 -12 -9 -22 -10 -30 -3 -17 14 -35 0 -28 -22 7 -21 -10 -35 -40 -35 -11
0 -20 -7 -20 -15 -1 -24 -15 -40 -36 -40 -11 0 -23 -8 -26 -17 -9 -23 -29 -43
-42 -43 -21 0 -23 -23 -4 -39 20 -17 58 -135 48 -151 -3 -5 1 -20 8 -32 8 -13
18 -36 21 -51 l7 -28 -29 15 c-16 8 -32 22 -35 31 -4 8 -15 15 -25 15 -23 0
-42 19 -36 35 7 18 -14 29 -29 16 -9 -7 -26 -1 -60 21 l-47 30 -47 -30 c-34
-22 -51 -28 -60 -21 -15 13 -36 2 -29 -16 6 -16 -13 -35 -36 -35 -10 0 -21 -7
-25 -15 -6 -18 -63 -50 -63 -36 0 4 8 26 17 47 9 22 18 48 18 59 4 55 30 137
47 146 25 14 22 26 -11 43 -16 9 -31 24 -34 36 -3 12 -13 20 -25 20 -22 0 -36
16 -37 40 0 8 -9 15 -20 15 -31 0 -47 14 -40 36 7 21 -22 40 -34 21 -4 -7 -12
-6 -25 4 -11 8 -18 14 -15 15 2 0 13 2 24 4 11 2 75 6 143 9 67 2 129 9 136
15 7 6 18 29 25 51 6 22 21 45 32 50 14 8 18 17 14 30 -6 19 32 140 44 140 3
0 17 -27 29 -60z"/>
<path d="M484 809 c-10 -17 13 -36 27 -22 12 12 4 33 -11 33 -5 0 -12 -5 -16
-11z"/>
<path d="M484 689 c-10 -17 13 -36 27 -22 12 12 4 33 -11 33 -5 0 -12 -5 -16
-11z"/>
<path d="M424 629 c-10 -17 13 -36 27 -22 12 12 4 33 -11 33 -5 0 -12 -5 -16
-11z"/>
<path d="M544 629 c-10 -17 13 -36 27 -22 12 12 4 33 -11 33 -5 0 -12 -5 -16
-11z"/>
<path d="M244 569 c-10 -17 13 -36 27 -22 12 12 4 33 -11 33 -5 0 -12 -5 -16
-11z"/>
<path d="M364 569 c-10 -17 13 -36 27 -22 12 12 4 33 -11 33 -5 0 -12 -5 -16
-11z"/>
<path d="M484 569 c-10 -17 13 -36 27 -22 12 12 4 33 -11 33 -5 0 -12 -5 -16
-11z"/>
<path d="M604 569 c-10 -17 13 -36 27 -22 12 12 4 33 -11 33 -5 0 -12 -5 -16
-11z"/>
<path d="M724 569 c-10 -17 13 -36 27 -22 12 12 4 33 -11 33 -5 0 -12 -5 -16
-11z"/>
<path d="M304 509 c-10 -17 13 -36 27 -22 12 12 4 33 -11 33 -5 0 -12 -5 -16
-11z"/>
<path d="M424 509 c-10 -17 13 -36 27 -22 12 12 4 33 -11 33 -5 0 -12 -5 -16
-11z"/>
<path d="M544 509 c-10 -17 13 -36 27 -22 12 12 4 33 -11 33 -5 0 -12 -5 -16
-11z"/>
<path d="M664 509 c-10 -17 13 -36 27 -22 12 12 4 33 -11 33 -5 0 -12 -5 -16
-11z"/>
<path d="M364 449 c-10 -17 13 -36 27 -22 12 12 4 33 -11 33 -5 0 -12 -5 -16
-11z"/>
<path d="M484 449 c-10 -17 13 -36 27 -22 12 12 4 33 -11 33 -5 0 -12 -5 -16
-11z"/>
<path d="M604 449 c-10 -17 13 -36 27 -22 12 12 4 33 -11 33 -5 0 -12 -5 -16
-11z"/>
<path d="M424 389 c-10 -17 13 -36 27 -22 12 12 4 33 -11 33 -5 0 -12 -5 -16
-11z"/>
<path d="M544 389 c-10 -17 13 -36 27 -22 12 12 4 33 -11 33 -5 0 -12 -5 -16
-11z"/>
<path d="M364 329 c-10 -17 13 -36 27 -22 12 12 4 33 -11 33 -5 0 -12 -5 -16
-11z"/>
<path d="M484 329 c-10 -17 13 -36 27 -22 12 12 4 33 -11 33 -5 0 -12 -5 -16
-11z"/>
<path d="M604 329 c-10 -17 13 -36 27 -22 12 12 4 33 -11 33 -5 0 -12 -5 -16
-11z"/>
<path d="M304 269 c-10 -17 13 -36 27 -22 12 12 4 33 -11 33 -5 0 -12 -5 -16
-11z"/>
<path d="M424 269 c-10 -17 13 -36 27 -22 12 12 4 33 -11 33 -5 0 -12 -5 -16
-11z"/>
<path d="M544 269 c-10 -17 13 -36 27 -22 12 12 4 33 -11 33 -5 0 -12 -5 -16
-11z"/>
<path d="M664 269 c-10 -17 13 -36 27 -22 12 12 4 33 -11 33 -5 0 -12 -5 -16
-11z"/>
</g>
</svg>
